<svg height="511pt" viewBox="0 0 511 511.99999" width="511pt" xmlns="http://www.w3.org/2000/svg" xmlns:xlink="http://www.w3.org/1999/xlink"><linearGradient id="linear0" gradientUnits="userSpaceOnUse" x1="255.9607838045" x2="255.9607838045" y1="-.000005" y2="511.999850609"><stop offset="0" stop-color="#2af598"/><stop offset="1" stop-color="#009efd"/></linearGradient><path d="m498.558594 12.863281c-14.574219-14.574219-38.507813-16.8125-69.214844-6.472656-21.8125 7.34375-43.980469 20.160156-56.476562 32.65625l-.082032.082031c-.597656.609375-29.097656 29.441406-63.171875 63.867188-37.644531 30.390625-94.535156 31.042968-145.132812 31.609375-17.257813.191406-33.558594.375-48.796875 1.65625-30.410156 2.554687-59.027344 15.832031-80.582032 37.386719l-10.710937 10.710937 73.875 131.273437-24.730469 24.175782 98.765625 98.765625 24.421875-23.871094 131.414063 73.386719 12.273437-12.273438c22.027344-22.027344 35.351563-51.257812 37.519532-82.308594.890624-12.789062 1.253906-26.636718 1.632812-41.296874 1.4375-54.949219 3.234375-123.230469 36.898438-157.78125 31.179687-31.160157 55.910156-55.878907 55.914062-55.878907 12.492188-12.496093 25.3125-34.660156 32.65625-56.472656 10.339844-30.707031 8.101562-54.640625-6.472656-69.214844zm-57.667969 31.785157c19.449219-6.78125 28.300781-4.464844 29.410156-3.566407.933594 1.148438 3.253907 10-3.527343 29.449219-2.945313 8.445312-6.824219 16.535156-10.796876 23.382812l-38.46875-38.46875c6.847657-3.972656 14.9375-7.851562 23.382813-10.796874zm-310.554687 295.484374 29.324218-28.660156.160156-.160156c5.648438-5.648438 13.15625-8.757812 21.144532-8.757812 7.988281 0 15.496094 3.109374 21.144531 8.757812 5.648437 5.644531 8.757813 13.15625 8.757813 21.140625 0 7.953125-3.085938 15.433594-8.6875 21.074219l-29.558594 28.890625zm209.304687 11.039063c-.371094 14.210937-.71875 27.640625-1.550781 39.558594-1.203125 17.222656-7.378906 33.640625-17.652344 47.320312l-93.933594-52.457031 3.679688-3.59375.164062-.160156c13.1875-13.191406 20.453125-30.730469 20.453125-49.382813 0-18.65625-7.265625-36.195312-20.453125-49.382812-13.191406-13.191407-30.730468-20.457031-49.382812-20.457031-18.613282 0-36.117188 7.234374-49.296875 20.371093l-3.835938 3.75-53.148437-94.4375c12.976562-9.230469 28.296875-14.894531 44.34375-16.242187 13.792968-1.15625 29.390625-1.332032 45.902344-1.519532 24.480468-.273437 51.457031-.578124 78.121093-4.363281-15.035156 15.148438-28.152343 28.339844-37.039062 37.226563l28.242187 28.238281c20.789063-20.792969 142.585938-143.808594 152.816406-154.152344l42.941407 42.941407c-10.054688 10.046874-128.910157 128.847656-152.464844 152.398437l28.242187 28.242187c9.820313-9.824218 23.871094-23.871093 39.695313-39.691406-4.355469 28.898438-5.136719 58.773438-5.84375 85.792969zm-230.390625 80.316406-80.511719 80.511719-28.238281-28.238281 80.511719-80.511719zm21.679688 23.679688 28.238281 28.238281-28.589844 28.59375-28.242187-28.238281zm-72.582032-72.660157-28.628906 28.632813-28.242188-28.238281 28.632813-28.632813zm0 0" fill="url(#linear0)"/></svg>