<svg id="Layer_1" enable-background="new 0 0 511.995 511.995" height="512" viewBox="0 0 511.995 511.995" width="512" xmlns="http://www.w3.org/2000/svg"><g><path d="m505.898 205.203-62.184-82.912c-4.785-6.381-12.473-10.291-20.582-10.291h-334.272c-8.065 0-15.784 3.891-20.583 10.291l-62.182 82.911c-8.429 11.238-8.286 27.343 1.528 38.467l229.081 259.625c10.224 11.586 28.332 11.618 38.584 0l229.081-259.625c9.907-11.229 9.881-27.331 1.529-38.466zm-12.003 10.797h-125.65l63.675-82.769c65.531 87.376 61.329 81.698 61.975 82.769zm-235.132 277.969c-.849 2.702-4.683 2.703-5.533.001l-82.334-261.97h170.2zm24.763-365.969 54.154 88h-163.367l54.154-88zm18.787 0h113.444l-63.027 81.927zm-143.05 81.927-63.027-81.927h113.444zm-79.19-76.696 63.675 82.769h-125.65c.646-1.071-3.533 4.575 61.975-82.769zm-61.316 98.769h135.367l74.943 238.456c-219.04-248.247-209.649-237.546-210.31-238.456zm264.167 238.456 74.943-238.456h135.367c-.656.905 12.818-14.422-210.31 238.456z"/><path d="m255.996 72c4.418 0 8-3.582 8-8v-56c0-4.418-3.582-8-8-8s-8 3.582-8 8v56c0 4.418 3.582 8 8 8z"/><path d="m185.749 84.997c2.746 3.433 7.778 4.023 11.244 1.25 3.45-2.76 4.01-7.795 1.25-11.244l-32-40c-2.76-3.451-7.795-4.008-11.244-1.25-3.45 2.76-4.01 7.795-1.25 11.244z"/><path d="m314.999 86.247c3.471 2.777 8.502 2.179 11.244-1.25l32-40c2.76-3.449 2.2-8.484-1.25-11.244-3.448-2.758-8.483-2.201-11.244 1.25l-32 40c-2.76 3.449-2.2 8.484 1.25 11.244z"/></g></svg>