<?xml version="1.0"?>
<svg xmlns="http://www.w3.org/2000/svg" viewBox="0 0 512 512" width="512" height="512"><g id="Out_line" data-name="Out line"><path d="M495.64648,389.64746l-32-104A8.00142,8.00142,0,0,0,456,280H303.25586l82.48877-85.43652A39.74979,39.74979,0,0,1,392,216a8,8,0,0,0,16,0,40.04584,40.04584,0,0,1,40-40,8,8,0,0,0,0-16,40.04584,40.04584,0,0,1-40-40,8,8,0,0,0-16,0,39.74877,39.74877,0,0,1-6.084,21.16919L323.30957,112.7168A7.966,7.966,0,0,0,320,112.01465V112H224a8.00235,8.00235,0,0,0-5.65723,2.34277l-75.699,75.699A39.761,39.761,0,0,1,136,168a8,8,0,0,0-16,0,40.04584,40.04584,0,0,1-40,40,8,8,0,0,0,0,16,39.761,39.761,0,0,1,22.04175,6.6438l-51.699,51.699.00342.00342a7.97964,7.97964,0,0,0-1.99267,3.30127l-32,104A7.99963,7.99963,0,0,0,24,400H488a7.99963,7.99963,0,0,0,7.64648-10.35254ZM349.168,296l-27.07666,88H202.84375l84.96411-88ZM400,148.82031A56.45716,56.45716,0,0,0,419.17969,168,56.45716,56.45716,0,0,0,400,187.17969,56.45716,56.45716,0,0,0,380.82031,168,56.45716,56.45716,0,0,0,400,148.82031Zm-25.9502,4.53076A39.76,39.76,0,0,1,352,160a8,8,0,0,0,0,16,39.7674,39.7674,0,0,1,22.63013,7.041l-186.97,193.65087L161.063,290.25146,321.7373,129.57715ZM227.31348,128h73.37207l-152,152H75.31445l38.04175-38.04175A39.761,39.761,0,0,1,120,264a8,8,0,0,0,16,0,40.04584,40.04584,0,0,1,40-40,8,8,0,0,0,0-16,39.75907,39.75907,0,0,1-22.04175-6.6438ZM128,196.82031A56.45716,56.45716,0,0,0,147.17969,216,56.45716,56.45716,0,0,0,128,235.17969,56.45716,56.45716,0,0,0,108.82031,216,56.45716,56.45716,0,0,0,128,196.82031ZM34.832,384,61.9082,296h84.1836L173.168,384Zm304,0,27.07617-88h84.1836L477.168,384Z"/><rect x="224" y="144" width="32" height="16"/><rect x="200" y="168" width="32" height="16"/></g></svg>
