<?xml version="1.0"?>
<svg xmlns="http://www.w3.org/2000/svg" xmlns:xlink="http://www.w3.org/1999/xlink" xmlns:svgjs="http://svgjs.com/svgjs" version="1.1" width="512" height="512" x="0" y="0" viewBox="0 0 512 512" style="enable-background:new 0 0 512 512" xml:space="preserve" class=""><g><linearGradient xmlns="http://www.w3.org/2000/svg" id="SVGID_1_" gradientUnits="userSpaceOnUse" x1="241" x2="241" y1="512" y2="151"><stop stop-opacity="1" stop-color="#523afd" offset="0.0888030888030888"/><stop stop-opacity="1" stop-color="#8de0ff" offset="1"/></linearGradient><linearGradient xmlns="http://www.w3.org/2000/svg" id="SVGID_2_" gradientUnits="userSpaceOnUse" x1="286" x2="286" y1="452" y2="0"><stop stop-opacity="1" stop-color="#c2f7ff" offset="0.007722007722007722"/><stop stop-opacity="1" stop-color="#11aee9" offset="1"/></linearGradient><g xmlns="http://www.w3.org/2000/svg"><g><g><path d="m391 272c8.401 0 15-6.599 15-15v-30c0-24.901-20.099-45-45-45h-15l-15-31-15 31h-150l-15.978-31-14.022 31h-15c-24.901 0-45 20.099-45 45v240c0 24.901 20.099 45 45 45h240c24.901 0 45-20.099 45-45v-30c0-8.401-6.599-15-15-15h-135v-30h135c8.401 0 15-6.599 15-15v-60c0-8.401-6.599-15-15-15h-135v-30z" fill="url(#SVGID_1_)" data-original="url(#SVGID_1_)" style=""/></g></g><g><g><path d="m421 242h-180c-8.291 0-15 6.709-15 15v60c0 8.291 6.709 15 15 15h180c8.291 0 15-6.709 15-15v-60c0-8.291-6.709-15-15-15zm0 120h-180c-8.291 0-15 6.709-15 15v60c0 8.291 6.709 15 15 15h180c8.291 0 15-6.709 15-15v-60c0-8.291-6.709-15-15-15zm-105-257v77h30v-77c0-57.9-47.1-105-105-105s-105 47.1-105 105v77h30v-77c0-41.4 33.6-75 75-75s75 33.6 75 75z" fill="url(#SVGID_2_)" data-original="url(#SVGID_2_)" style=""/></g></g></g></g></svg>
